<svg xmlns="http://www.w3.org/2000/svg" width="64" height="64" viewBox="0 0 64 64" fill="none"><path fill-rule="evenodd" clip-rule="evenodd" d="M10.12 27.9999L15.0533 32.9466C15.8933 33.7866 17.3333 33.1866 17.3333 31.9999V27.9999H22.6667C23.4 27.9999 24 27.3999 24 26.6666V10.6666C24 9.93325 23.4 9.33325 22.6667 9.33325H1.33333C0.6 9.33325 0 9.93325 0 10.6666V26.6666C0 27.3999 0.6 27.9999 1.33333 27.9999H10.12ZM11.2133 25.3333H2.66667V11.9999H21.3333V25.3333H14.6667V28.7866L11.2133 25.3333ZM60 22.6666C60 25.7199 58.52 28.4266 56.2533 30.1199C60.7733 31.8533 64 36.2133 64 41.3333V46.6666C64 47.3999 63.4 47.9999 62.6666 47.9999C61.9333 47.9999 61.3333 47.3999 61.3333 46.6666V41.3333C61.3333 36.1866 57.1466 31.9999 52 31.9999H49.9733C49.1066 34.4266 47.5066 36.4933 45.4133 37.9199C51.52 39.6933 56 45.3333 56 51.9999V54.6666C56 55.3999 55.4 55.9999 54.6666 55.9999C53.9333 55.9999 53.3333 55.3999 53.3333 54.6666V51.9999C53.3333 45.3866 47.9466 39.9999 41.3333 39.9999H36C29.3866 39.9999 24 45.3866 24 51.9999V54.6666C24 55.3999 23.4 55.9999 22.6666 55.9999C21.9333 55.9999 21.3333 55.3999 21.3333 54.6666V51.9999C21.3333 45.3333 25.8133 39.6933 31.92 37.9199C28.76 35.7599 26.6666 32.1199 26.6666 27.9999C26.6666 21.3866 32.0533 15.9999 38.6666 15.9999C40.32 15.9999 41.8933 16.3333 43.32 16.9333C45.0266 14.7466 47.68 13.3333 50.6666 13.3333C55.8133 13.3333 60 17.5199 60 22.6666ZM29.3333 27.9999C29.3333 33.1466 33.52 37.3333 38.6666 37.3333C43.8133 37.3333 48 33.1466 48 27.9999C48 22.8533 43.8133 18.6666 38.6666 18.6666C33.52 18.6666 29.3333 22.8533 29.3333 27.9999ZM50.5866 29.3333H50.6666C54.3466 29.3333 57.3333 26.3466 57.3333 22.6666C57.3333 18.9866 54.3466 15.9999 50.6666 15.9999C48.68 15.9999 46.9066 16.8933 45.6933 18.2933C48.6933 20.4799 50.6666 24.0133 50.6666 27.9999C50.6666 28.4533 50.64 28.8933 50.5866 29.3333Z" fill="#99BFFF"></path></svg>