<svg xmlns="http://www.w3.org/2000/svg" width="64" height="64" viewBox="0 0 64 64" fill="none"><path fill-rule="evenodd" clip-rule="evenodd" d="M5.33334 53.3333H26.6667C27.4 53.3333 28 53.9333 28 54.6667C28 55.4 27.4 56 26.6667 56H4.00001C3.26667 56 2.66667 55.4 2.66667 54.6667V9.33333C2.66667 8.6 3.26667 8 4.00001 8H60C60.7333 8 61.3333 8.6 61.3333 9.33333V29.3333C61.3333 30.0667 60.7333 30.6667 60 30.6667C59.2667 30.6667 58.6667 30.0667 58.6667 29.3333V21.3333H5.33334V53.3333ZM58.6667 18.6667V10.6667H5.33334V18.6667H58.6667ZM10.6667 14.6666C10.6667 15.403 10.0697 15.9999 9.33333 15.9999C8.59695 15.9999 8 15.403 8 14.6666C8 13.9302 8.59695 13.3333 9.33333 13.3333C10.0697 13.3333 10.6667 13.9302 10.6667 14.6666ZM48.5333 32.7199C48.3333 32.2799 47.8933 31.9999 47.4133 31.9999H45.8133C45.32 31.9999 44.8667 32.2933 44.68 32.7466L43.3067 36.0266L41.52 36.7733C41.52 36.7733 39.32 35.9333 38.1333 35.4799C38 35.4266 37.8533 35.3999 37.7067 35.3999C37.3867 35.3999 37.08 35.5199 36.84 35.7599L35.6933 36.9066C35.3467 37.2533 35.24 37.7733 35.4267 38.2266L36.7733 41.5199L36.0267 43.3199L32.72 44.7999C32.28 44.9999 32 45.4399 32 45.9199V47.5333C32 48.0266 32.2933 48.4666 32.7333 48.6666L36.0133 50.0399L36.76 51.8266L35.4667 55.1999C35.2933 55.6533 35.4 56.1599 35.7467 56.5066L36.8933 57.6533C37.1333 57.8933 37.44 58.0133 37.76 58.0133C37.92 58.0133 38.08 57.9866 38.2267 57.9199L41.52 56.5733L43.32 57.3199L44.8 60.6133C45 61.0533 45.44 61.3333 45.92 61.3333H47.5333C48.0267 61.3333 48.4667 61.0399 48.6667 60.6399L50.04 57.3599L51.84 56.6133L55.2133 57.9066C55.36 57.9599 55.5067 57.9866 55.6533 57.9866C55.9733 57.9866 56.28 57.8533 56.52 57.6266L57.6667 56.4799C58.0133 56.1333 58.12 55.5999 57.9333 55.1466L56.5867 51.8533L57.32 50.0533L60.6267 48.5733C61.0667 48.3733 61.3467 47.9333 61.3467 47.4533V45.8399C61.3467 45.3466 61.0533 44.8932 60.6 44.7066L57.32 43.3333L56.5733 41.5333L57.8667 38.1466C58.04 37.6933 57.9333 37.1866 57.5867 36.8399L56.44 35.6933C56.2 35.4533 55.8933 35.3333 55.5733 35.3333C55.4133 35.3333 55.2533 35.3599 55.1067 35.4266L51.8133 36.7733L50.0133 36.0266L48.5333 32.7199ZM54 46.7866C54 50.8399 50.72 54.1199 46.6667 54.1199C42.6133 54.1199 39.3333 50.8399 39.3333 46.7866C39.3333 42.7333 42.6133 39.4533 46.6667 39.4533C50.72 39.4533 54 42.7333 54 46.7866ZM45.8 29.3333H47.4133C48.9467 29.3333 50.3467 30.2399 50.9333 31.5999L51.92 33.7866L54.0667 32.9066C54.5333 32.7066 55.0267 32.6133 55.5333 32.6133C56.5733 32.6133 57.5467 33.0133 58.28 33.7466L59.4267 34.8933C60.52 35.9733 60.8667 37.5999 60.32 39.0266L59.4667 41.2799L61.6 42.1733C63.0533 42.7733 63.9867 44.1866 63.9867 45.7599V47.3732C63.9867 48.9066 63.0933 50.2933 61.6933 50.9199L59.5067 51.9066L60.3867 54.0533C60.9867 55.5066 60.64 57.1733 59.5333 58.2799L58.3867 59.4266C57.6533 60.1599 56.68 60.5599 55.64 60.5599C55.16 60.5599 54.6933 60.4799 54.2533 60.3066L52.0133 59.4533L51.12 61.5866C50.5067 63.0399 49.1067 63.9733 47.5333 63.9733H45.92C44.3867 63.9733 43 63.0799 42.3733 61.6799L41.3867 59.4933L39.2533 60.3733C38.7733 60.5732 38.28 60.6666 37.7733 60.6666C36.7333 60.6666 35.76 60.2666 35.0267 59.5333L33.88 58.3866C32.8 57.3066 32.4533 55.6799 33 54.2533L33.8533 52.0133L31.72 51.1199C30.2667 50.5066 29.3333 49.1066 29.3333 47.5333V45.9199C29.3333 44.3866 30.24 42.9866 31.64 42.3866L33.8267 41.4132L32.9467 39.2666C32.36 37.8133 32.6933 36.1466 33.8 35.0399L34.9467 33.8933C35.68 33.1466 36.6533 32.7466 37.6933 32.7466C38.16 32.7466 38.6267 32.8266 39.0667 32.9999C39.6933 33.2266 40.6 33.5733 41.32 33.8533L42.2133 31.7199C42.8267 30.2666 44.2267 29.3333 45.8 29.3333ZM42 46.7866C42 49.3599 44.0933 51.4533 46.6667 51.4533C49.24 51.4533 51.3333 49.3599 51.3333 46.7866C51.3333 44.2133 49.24 42.1199 46.6667 42.1199C44.0933 42.1199 42 44.2133 42 46.7866ZM8 42.6666C8 43.3999 8.6 43.9999 9.33333 43.9999H21.3333C22.0667 43.9999 22.6667 43.3999 22.6667 42.6666C22.6667 41.9333 22.0667 41.3333 21.3333 41.3333H9.33333C8.6 41.3333 8 41.9333 8 42.6666ZM18.6667 30.6667C19.4 30.6667 20 31.2667 20 32.0001C20 32.7334 19.4 33.3334 18.6667 33.3334H9.33333C8.6 33.3334 8 32.7334 8 32.0001C8 31.2667 8.6 30.6667 9.33333 30.6667H18.6667ZM28 36H18.6667C17.9333 36 17.3333 36.6 17.3333 37.3333C17.3333 38.0667 17.9333 38.6667 18.6667 38.6667H28C28.7333 38.6667 29.3333 38.0667 29.3333 37.3333C29.3333 36.6 28.7333 36 28 36ZM24 30.6667H28C28.7333 30.6667 29.3333 31.2667 29.3333 32.0001C29.3333 32.7334 28.7333 33.3334 28 33.3334H24C23.2667 33.3334 22.6667 32.7334 22.6667 32.0001C22.6667 31.2667 23.2667 30.6667 24 30.6667ZM13.3333 36H9.33333C8.6 36 8 36.6 8 37.3333C8 38.0667 8.6 38.6667 9.33333 38.6667H13.3333C14.0667 38.6667 14.6667 38.0667 14.6667 37.3333C14.6667 36.6 14.0667 36 13.3333 36ZM16 14.6666C16 15.403 15.4031 15.9999 14.6667 15.9999C13.9303 15.9999 13.3333 15.403 13.3333 14.6666C13.3333 13.9302 13.9303 13.3333 14.6667 13.3333C15.4031 13.3333 16 13.9302 16 14.6666ZM20 15.9999C20.7364 15.9999 21.3333 15.403 21.3333 14.6666C21.3333 13.9302 20.7364 13.3333 20 13.3333C19.2636 13.3333 18.6667 13.9302 18.6667 14.6666C18.6667 15.403 19.2636 15.9999 20 15.9999Z" fill="#99BFFF"></path></svg>