<svg xmlns="http://www.w3.org/2000/svg" width="64" height="64" viewBox="0 0 64 64" fill="none"><path fill-rule="evenodd" clip-rule="evenodd" d="M51.8667 43.8667C52 44.6667 51.3333 45.3334 50.5333 45.3334H38.6667V50.6667C38.6667 51.4667 38.1333 52.0001 37.3333 52.0001H24C23.2 52.0001 22.6667 51.4667 22.6667 50.6667V45.3334H10.8C9.99999 45.3334 9.33333 44.6667 9.46666 43.8667C9.79487 39.9938 11.7066 37.9306 13.5632 35.9271C15.4776 33.8611 17.3333 31.8584 17.3333 28.0001V21.3334C17.3333 8.66674 27.3333 2.00007 30 0.400073C30.4 0.133407 30.9333 0.133407 31.3333 0.400073C34 2.00007 44 8.66674 44 21.3334V28.0001C44 31.8584 45.8557 33.8611 47.7701 35.9271C49.6267 37.9306 51.5385 39.9938 51.8667 43.8667ZM25.3333 45.3334V49.3334H36V45.3334H30.6667H25.3333ZM38.6667 42.6667H41.3333V21.3334C41.3333 10.8001 33.7333 4.93341 30.6667 3.06674C27.6 4.93341 20 10.8001 20 21.3334V42.6667H22.6667H30.6667H38.6667ZM24 22.6667C24 26.4 26.9333 29.3334 30.6667 29.3334C34.4 29.3334 37.3333 26.4 37.3333 22.6667C37.3333 18.9334 34.4 16 30.6667 16C26.9333 16 24 18.9334 24 22.6667ZM34.6667 22.6667C34.6667 24.9334 32.9333 26.6667 30.6667 26.6667C28.4 26.6667 26.6667 24.9334 26.6667 22.6667C26.6667 20.4 28.4 18.6667 30.6667 18.6667C32.9333 18.6667 34.6667 20.4 34.6667 22.6667ZM30.6667 54.6667C29.8667 54.6667 29.3333 55.2 29.3333 56V62.6667C29.3333 63.4667 29.8667 64 30.6667 64C31.4667 64 32 63.4667 32 62.6667V56C32 55.2 31.4667 54.6667 30.6667 54.6667ZM34.6667 56C34.6667 55.2 35.2 54.6667 36 54.6667C36.8 54.6667 37.3333 55.2 37.3333 56V58.6667C37.3333 59.4667 36.8 60 36 60C35.2 60 34.6667 59.4667 34.6667 58.6667V56ZM25.3333 54.6667C24.5333 54.6667 24 55.2 24 56V58.6667C24 59.4667 24.5333 60 25.3333 60C26.1333 60 26.6667 59.4667 26.6667 58.6667V56C26.6667 55.2 26.1333 54.6667 25.3333 54.6667Z" fill="#99C0FF"></path></svg>