<svg xmlns="http://www.w3.org/2000/svg" width="64" height="64" viewBox="0 0 64 64" fill="none"><path fill-rule="evenodd" clip-rule="evenodd" d="M52.5333 9.33353C52.6667 9.86686 53.2 10.1335 53.7333 10.1335H54.1333C54.9333 9.86686 55.2 9.06687 54.9333 8.4002L52 0.933566C51.8667 0.533567 51.6 0.266902 51.3333 0.133569C51.0667 0.000236135 50.6667 0.000236135 50.4 0.133569L42.9333 3.06689C42.1333 3.33356 41.8667 4.13355 42.1333 4.80022C42.4 5.60021 43.2 5.86688 43.8667 5.60021L48.3418 3.88633C35.9881 33.7796 5.18916 44.0003 4.80003 44.0003C4.13337 44.267 3.73337 45.067 4.00003 45.7336C4.2667 46.267 4.80003 46.667 5.33336 46.667H5.73336L5.7352 46.6663C6.21237 46.5074 38.0442 35.901 50.8222 4.96077L52.5333 9.33353ZM57.3333 62.6667C57.3333 63.4667 57.8666 64.0001 58.6667 64.0001C59.4667 64.0001 60 63.4667 60 62.6667V17.3335C60 16.5336 59.4667 16.0002 58.6667 16.0002C57.8666 16.0002 57.3333 16.5336 57.3333 17.3335V62.6667ZM4 62.6668C4 63.4667 4.53334 64.0001 5.33334 64.0001C6.13335 64.0001 6.66669 63.4667 6.66669 62.6668V57.3336C6.66669 56.5336 6.13335 56.0003 5.33334 56.0003C4.53334 56.0003 4 56.5336 4 57.3336V62.6668ZM16 64.0001C15.2 64.0001 14.6667 63.4667 14.6667 62.6668V54.6669C14.6667 53.8669 15.2 53.3336 16 53.3336C16.8 53.3336 17.3333 53.8669 17.3333 54.6669V62.6668C17.3333 63.4667 16.8 64.0001 16 64.0001ZM25.3333 62.6667C25.3333 63.4667 25.8666 64.0001 26.6667 64.0001C27.4667 64.0001 28 63.4667 28 62.6667V46.6669C28 45.8669 27.4667 45.3335 26.6667 45.3335C25.8666 45.3335 25.3333 45.8669 25.3333 46.6669V62.6667ZM37.3333 64.0001C36.5333 64.0001 36 63.4667 36 62.6667V41.3335C36 40.5335 36.5333 40.0001 37.3333 40.0001C38.1334 40.0001 38.6667 40.5335 38.6667 41.3335V62.6667C38.6667 63.4667 38.1334 64.0001 37.3333 64.0001ZM46.6667 62.6667C46.6667 63.4667 47.2 64.0001 48 64.0001C48.8 64.0001 49.3333 63.4667 49.3333 62.6667V33.3334C49.3333 32.5334 48.8 32.0001 48 32.0001C47.2 32.0001 46.6667 32.5334 46.6667 33.3334V62.6667Z" fill="#99C0FF"></path></svg>