<svg xmlns="http://www.w3.org/2000/svg" width="64" height="64" viewBox="0 0 64 64" fill="none"><g clip-path="url(#clip0)"><path fill-rule="evenodd" clip-rule="evenodd" d="M60 56H53.16C60.0133 49.96 64 41.24 64 32C64 14.36 49.64 0 32 0C29.68 0 27.3333 0.253333 25.04 0.773333C24.32 0.933333 23.8667 1.64 24.0267 2.36C24.1867 3.08 24.8933 3.53333 25.6133 3.37333C27.7333 2.90667 29.88 2.66667 32 2.66667C48.1733 2.66667 61.3333 15.8267 61.3333 32C61.3333 40.7867 57.3867 49.0533 50.6667 54.6V46.6667C50.6667 45.9333 50.0667 45.3333 49.3333 45.3333C48.6 45.3333 48 45.9333 48 46.6667V58.6667H60C60.7333 58.6667 61.3333 58.0667 61.3333 57.3333C61.3333 56.6 60.7333 56 60 56ZM48.2933 36.4668L45.6933 37.6402L46.76 40.1735C47.3733 41.6668 47.0267 43.3735 45.88 44.5202L44.6267 45.7735C43.8667 46.5335 42.8667 46.9468 41.8 46.9468C41.3067 46.9468 40.8267 46.8535 40.3733 46.6802L37.7067 45.6668L36.64 48.2135C36.0133 49.7068 34.56 50.6668 32.9467 50.6668H31.1867C29.6133 50.6668 28.1733 49.7335 27.5467 48.3068L26.3733 45.7068L23.8267 46.7468C23.3333 46.9335 22.8267 47.0402 22.3067 47.0402C21.24 47.0402 20.24 46.6268 19.48 45.8668L18.2267 44.6135C17.12 43.5068 16.76 41.8268 17.32 40.3602L18.3333 37.6935L15.7867 36.6268C14.2933 36.0002 13.3333 34.5468 13.3333 32.9335V31.1735C13.3333 29.6002 14.2667 28.1735 15.7067 27.5202L18.3067 26.3602L17.2667 23.8135C16.6533 22.3202 16.9867 20.6135 18.1333 19.4668L19.3733 18.2002C20.1333 17.4402 21.1333 17.0268 22.2 17.0268C22.68 17.0268 23.16 17.1202 23.6133 17.2935C24.3733 17.5868 25.48 18.0135 26.2933 18.3202L27.36 15.7868C27.9867 14.2935 29.44 13.3335 31.0533 13.3335H32.8133C34.3867 13.3335 35.8267 14.2668 36.4533 15.6935L37.6267 18.2935L40.1867 17.2535C40.68 17.0668 41.1867 16.9602 41.7067 16.9602C42.7733 16.9602 43.7733 17.3735 44.5333 18.1335L45.7867 19.3602C46.8933 20.4668 47.2533 22.1468 46.6933 23.6135L45.68 26.2935L48.2133 27.3602C49.7067 27.9868 50.6667 29.4402 50.6667 31.0535V32.8135C50.6667 34.3868 49.7333 35.8268 48.2933 36.4668ZM43.9867 42.6535C44.3733 42.2668 44.48 41.6935 44.28 41.2002L42.8533 37.6002L43.6533 35.6402L47.2533 34.0268C47.7333 33.8135 48.04 33.3335 48.04 32.8135V31.0535C48.04 30.5202 47.72 30.0402 47.2267 29.8268L43.6533 28.3335L42.84 26.3735L44.24 22.6802C44.4267 22.2002 44.3067 21.6402 43.9333 21.2668L42.68 20.0268C42.4267 19.7735 42.08 19.6402 41.7333 19.6402C41.56 19.6402 41.3867 19.6668 41.2267 19.7335L37.6267 21.2002L35.6667 20.3868L34.0533 16.7868C33.84 16.3068 33.36 16.0002 32.84 16.0002H31.08C30.5467 16.0002 30.0667 16.3202 29.8533 16.8135L28.3467 20.4002L26.3867 21.2135C26.3867 21.2135 23.9867 20.2935 22.6933 19.8002C22.5467 19.7335 22.3867 19.7068 22.2267 19.7068C21.88 19.7068 21.5333 19.8402 21.28 20.0935L20.0267 21.3468C19.64 21.7335 19.5333 22.3068 19.7333 22.8002L21.2 26.4002L20.3867 28.3602L16.7867 29.9735C16.3067 30.1868 16 30.6668 16 31.1868V32.9468C16 33.4802 16.32 33.9602 16.8133 34.1468L20.4 35.6535L21.2133 37.6135L19.8 41.3068C19.6133 41.7868 19.7333 42.3468 20.1067 42.7202L21.36 43.9735C21.6133 44.2268 21.96 44.3602 22.3067 44.3602C22.48 44.3602 22.6533 44.3335 22.8133 44.2668L26.4 42.8002L28.36 43.6135L29.9733 47.2135C30.1867 47.6935 30.6667 48.0002 31.1867 48.0002H32.9467C33.48 48.0002 33.96 47.6802 34.16 47.1868L35.6667 43.6002L37.6267 42.7868L41.3067 44.2002C41.4667 44.2668 41.6267 44.2935 41.7867 44.2935C42.1333 44.2935 42.48 44.1602 42.7333 43.9068L43.9867 42.6535ZM24 32.1333C24 27.72 27.5867 24.1333 32 24.1333C36.4133 24.1333 40 27.72 40 32.1333C40 36.5466 36.4133 40.1333 32 40.1333C27.5867 40.1333 24 36.5466 24 32.1333ZM26.6667 32.1333C26.6667 35.08 29.0533 37.4666 32 37.4666C34.9467 37.4666 37.3333 35.08 37.3333 32.1333C37.3333 29.1866 34.9467 26.8 32 26.8C29.0533 26.8 26.6667 29.1866 26.6667 32.1333ZM32 61.3335C34.12 61.3335 36.2667 61.0935 38.3733 60.6268C39.1067 60.4668 39.8133 60.9202 39.9733 61.6402C40.1333 62.3602 39.68 63.0668 38.96 63.2268C36.6667 63.7468 34.32 64.0002 32 64.0002C14.36 64.0002 0 49.6402 0 32.0002C0 22.7602 3.98667 14.0402 10.84 8.00016H4C3.26667 8.00016 2.66667 7.40016 2.66667 6.66683C2.66667 5.9335 3.26667 5.3335 4 5.3335H16V17.3335C16 18.0668 15.4 18.6668 14.6667 18.6668C13.9333 18.6668 13.3333 18.0668 13.3333 17.3335V9.40016C6.61333 14.9468 2.66667 23.2135 2.66667 32.0002C2.66667 48.1735 15.8267 61.3335 32 61.3335Z" fill="#99BFFF"></path></g><defs><clipPath id="clip0"><path d="M0 0H64V64H0V0Z" fill="white"></path></clipPath></defs></svg>