<svg width="133" height="32" viewBox="0 0 133 32" fill="none" xmlns="http://www.w3.org/2000/svg">
<path d="M39.1 11.7C36.9 11.7 34.9 12.7 33.6 14.2V12H27.7V31.7H33.6V20C33.6 18.2 35.1 16.7 37 16.7C38.9 16.7 40.3 18.2 40.4 20V31.7H46.3V19V18.9C46.3 14.9 43.1 11.7 39.1 11.7Z" fill="white"/>
<path d="M60.9 11.7C55.1 11.7 50.5 16.3 50.5 21.9C50.5 27.5 55.1 32 60.9 32C66.7 32 71.3 27.4 71.3 21.8C71.3 16.2 66.7 11.7 60.9 11.7ZM60.9 26.6C58.4 26.6 56.4 24.5 56.4 21.8C56.4 19.2 58.4 17 60.9 17C63.4 17 65.4 19.1 65.4 21.8C65.4 24.5 63.4 26.6 60.9 26.6Z" fill="white"/>
<path d="M81.4 0.300568H75.5V31.6006H81.4V0.300568Z" fill="white"/>
<path d="M95 4.89999H89.1V12H85.4V16.5H89.1V31.7H95V16.5H98.7V12H95V4.89999Z" fill="white"/>
<path d="M108.6 12H102.7V31.7H108.6V12Z" fill="white"/>
<path d="M105.6 8.69998C107.423 8.69998 108.9 7.22252 108.9 5.39998C108.9 3.57744 107.423 2.09998 105.6 2.09998C103.777 2.09998 102.3 3.57744 102.3 5.39998C102.3 7.22252 103.777 8.69998 105.6 8.69998Z" fill="white"/>
<path d="M123.2 26.6C120.7 26.6 118.7 24.5 118.7 21.8C118.7 19.2 120.7 17 123.2 17C125 17 126.6 18.1 127.3 19.7L132.8 17.8C131.2 14.2 127.5 11.6 123.2 11.6C117.4 11.6 112.8 16.2 112.8 21.8C112.8 27.4 117.4 32 123.2 32C127.5 32 131.2 29.4 132.8 25.8L127.3 23.9C126.5 25.5 125 26.6 123.2 26.6Z" fill="white"/>
<path d="M18 31.7L0.200012 10.8V31.7H18Z" fill="white"/>
<path d="M2.30005 0.300568L20 21.2006V0.300568H2.30005Z" fill="#1261E0"/>
</svg>
