<svg xmlns="http://www.w3.org/2000/svg" xmlns:xlink="http://www.w3.org/1999/xlink" viewBox="0 0 134 32"><defs><path id="a" d="M0 32h140.522V0H0z"></path></defs><g fill="none" fill-rule="evenodd" transform="translate(-7)"><path fill="#242831" d="M46.522 11.652a7.217 7.217 0 0 1 7.217 7.218l-.002.087h.002v12.695h-5.913V20h-.004a3.39 3.39 0 0 0-6.774 0h-.005v11.652H35.13V12h5.913v2.174a7.199 7.199 0 0 1 5.479-2.522zM68.348 26.609c-2.497 0-4.522-2.142-4.522-4.783 0-2.641 2.025-4.783 4.522-4.783 2.497 0 4.522 2.142 4.522 4.783 0 2.641-2.025 4.783-4.522 4.783m0-14.957c-5.763 0-10.435 4.555-10.435 10.174S62.585 32 68.348 32c5.763 0 10.435-4.555 10.435-10.174S74.11 11.652 68.348 11.652"></path><path fill="#242831" d="M82.957 31.652h5.913V.348h-5.913zM102.435 4.87h-5.913V12H92.87v4.522h3.652v15.13h5.913v-15.13h3.652V12h-3.652zM110.087 31.652H116V12h-5.913zM113.043 2.087a3.304 3.304 0 1 0 0 6.609 3.304 3.304 0 0 0 0-6.609M130.609 26.609c-2.498 0-4.522-2.142-4.522-4.783 0-2.641 2.024-4.783 4.522-4.783 1.802 0 3.357 1.116 4.084 2.729l5.524-1.92c-1.588-3.644-5.292-6.2-9.608-6.2-5.763 0-10.435 4.555-10.435 10.174S124.846 32 130.609 32c4.316 0 8.02-2.555 9.608-6.2l-5.524-1.92c-.727 1.614-2.282 2.729-4.084 2.729M25.394 31.652l-17.74-20.87v20.87z" mask="url(#b)"></path><path fill="#105AD4" d="M9.74.348l17.738 20.87V.347z" mask="url(#b)"></path></g></svg>