<svg xmlns="http://www.w3.org/2000/svg" width="128" height="136" viewBox="0 0 128 136" fill="none"><path d="M120 136H8C3.6 136 0 132.4 0 128V8C0 3.6 3.6 0 8 0H120C124.4 0 128 3.6 128 8V128C128 132.4 124.4 136 120 136Z" fill="#59575C"></path><path d="M58.4 40.8C60.8 38.3 64.2 36.7 67.9 36.7C72.8 36.7 77.1 39.4 79.4 43.5C81.4 42.6 83.6 42.1 85.9 42.1C94.8 42.1 102 49.4 102 58.3C102 67.3 94.8 74.5 85.9 74.5C84.8 74.5 83.8 74.4 82.7 74.2C80.7 77.8 76.8 80.2 72.4 80.2C70.6 80.2 68.8 79.8 67.3 79C65.3 83.8 60.5 87.2 55 87.2C49.2 87.2 44.3 83.5 42.4 78.4C41.6 78.6 40.7 78.7 39.8 78.7C32.9 78.7 27.4 73.1 27.4 66.1C27.4 61.4 29.9 57.4 33.6 55.2C32.8 53.4 32.4 51.5 32.4 49.4C32.4 41.4 38.9 34.9 46.9 34.9C51.6 35.2 55.8 37.4 58.4 40.8Z" fill="#00A1E0"></path><path d="M38.2 62.2001C38.2 62.3001 38.2 62.3001 38.2 62.4001C38.3 62.5001 38.4999 62.6001 38.5999 62.7001C39.3999 63.1001 40.0999 63.2001 40.7999 63.2001C42.2999 63.2001 43.2999 62.4 43.2999 61.1C43.2999 59.9 42.2 59.4 41.2 59.1H41.0999C40.2999 58.9 39.7 58.6 39.7 58.1C39.7 57.7 40.1 57.4001 40.7 57.4001C41.4 57.4001 42.0999 57.6001 42.5999 57.9001C42.5999 57.9001 42.6999 58.0001 42.7999 57.9001C42.7999 57.8001 43.0999 57.1 43.0999 57.1C43.0999 57 43.1 57.0001 43 56.9001C42.4 56.5001 41.5999 56.3 40.7999 56.3H40.5999C39.1999 56.3 38.2 57.1001 38.2 58.4001C38.2 59.7001 39.2999 60.1001 40.2999 60.4001L40.5 60.5C41.2 60.7 41.9 60.9001 41.9 61.4001C41.9 61.9001 41.4999 62.2001 40.7999 62.2001C40.4999 62.2001 39.6999 62.2 38.7999 61.6C38.6999 61.5 38.6 61.5001 38.5 61.4001C38.5 61.4001 38.2999 61.3 38.2999 61.5L38.2 62.2001Z" fill="white"></path><path d="M60.6 62.2001C60.6 62.3001 60.6 62.3001 60.6 62.4001C60.7 62.5001 60.9 62.6001 61 62.7001C61.8 63.1001 62.5 63.2001 63.2 63.2001C64.7 63.2001 65.7 62.4 65.7 61.1C65.7 59.9 64.6 59.4 63.6 59.1H63.5C62.7 58.9 62.1 58.6 62.1 58.1C62.1 57.7 62.5 57.4001 63.1 57.4001C63.8 57.4001 64.5 57.6001 65 57.9001C65 57.9001 65.1 58.0001 65.2 57.9001C65.2 57.8001 65.5 57.1 65.5 57.1C65.5 57 65.5 57.0001 65.4 56.9001C64.8 56.5001 64 56.3 63.2 56.3H63C61.6 56.3 60.6 57.1001 60.6 58.4001C60.6 59.7001 61.7 60.1001 62.7 60.4001L62.9 60.5C63.6 60.7 64.3 60.9001 64.3 61.4001C64.3 61.9001 63.9 62.2001 63.2 62.2001C62.9 62.2001 62.1 62.2 61.2 61.6C61.1 61.5 61 61.5001 60.9 61.4001C60.9 61.4001 60.7 61.3 60.7 61.5L60.6 62.2001Z" fill="white"></path><path d="M77.2 58.2999C77.1 57.8999 76.9 57.5 76.6 57.2C76.3 56.9 76 56.6 75.6 56.5C75.2 56.3 74.7 56.2 74.2 56.2C73.7 56.2 73.2 56.3 72.8 56.5C72.4 56.7 72.1 56.9 71.8 57.2C71.5 57.5 71.3 57.8999 71.2 58.2999C71.1 58.6999 71 59.2 71 59.7C71 60.2 71.1 60.6999 71.2 61.0999C71.3 61.4999 71.5 61.9 71.8 62.2C72.1 62.5 72.4 62.8 72.8 62.9C73.2 63.1 73.7 63.2 74.2 63.2C74.7 63.2 75.2 63.1 75.6 62.9C76 62.7 76.3 62.5 76.6 62.2C76.9 61.9 77.1 61.4999 77.2 61.0999C77.3 60.6999 77.4 60.2 77.4 59.7C77.4 59.2 77.3 58.6999 77.2 58.2999ZM75.9 59.7C75.9 60.4 75.8 61 75.5 61.4C75.2 61.8 74.8 62 74.3 62C73.7 62 73.3 61.8 73.1 61.4C72.8 61 72.7 60.4 72.7 59.7C72.7 59 72.8 58.4 73.1 58C73.4 57.6 73.8 57.4 74.3 57.4C74.9 57.4 75.3 57.6 75.5 58C75.7 58.3 75.9 58.9 75.9 59.7Z" fill="white"></path><path fill-rule="evenodd" clip-rule="evenodd" d="M87.6 61.7999C87.6 61.6999 87.4 61.7 87.4 61.7C87.2 61.8 87 61.8 86.8 61.9C86.6 61.9 86.4 62 86.1 62C85.5 62 85 61.8 84.6 61.5C84.2 61.1 84 60.4999 84.1 59.7999C84.1 59.0999 84.3 58.4999 84.6 58.0999C84.9 57.6999 85.4 57.5 86 57.5C86.5 57.5 86.9 57.6 87.3 57.7C87.3 57.7 87.4 57.6999 87.4 57.5999C87.5 57.2999 87.6 57.1 87.7 56.7C87.7 56.6 87.7 56.6 87.6 56.5C87.4 56.4 87 56.2999 86.7 56.2999C86.4 56.2999 86.1 56.2 85.7 56.2C85.2 56.2 84.7 56.3 84.3 56.5C83.9 56.7 83.5 56.9 83.3 57.2C83 57.5 82.8 57.8999 82.7 58.2999C82.6 58.6999 82.5 59.2 82.5 59.7C82.5 60.8 82.8 61.6 83.3 62.2C83.9 62.8 84.7 63.0999 85.8 63.0999C86.5 63.0999 87.1 62.9999 87.6 62.7999C87.6 62.7999 87.7 62.7999 87.7 62.5999L87.6 61.7999Z" fill="white"></path><path fill-rule="evenodd" clip-rule="evenodd" d="M94.2 58C94.1 57.6 93.8 57.2 93.6 57C93.3 56.7 93 56.5 92.8 56.4C92.4 56.2 92 56.1 91.6 56.1C91.1 56.1 90.6 56.2 90.2 56.4C89.8 56.6 89.5 56.8 89.2 57.2C88.9 57.5 88.7 57.9 88.6 58.3C88.5 58.7 88.4 59.2 88.4 59.7C88.4 60.2 88.5 60.7 88.6 61.1C88.7 61.5 88.9 61.9 89.2 62.2C89.5 62.5 89.8 62.8 90.3 62.9C90.7 63.1 91.3 63.2 91.9 63.2C93.1 63.2 93.8 62.9 94.1 62.8C94.1 62.8 94.2 62.7 94.1 62.6L93.8 61.8C93.8 61.7 93.6 61.7 93.6 61.7C93.3 61.8 92.9 62 91.8 62C91.1 62 90.6 61.8 90.3 61.5C90 61.2 89.8 60.7 89.8 60.1H94.1C94.1 60.1 94.2 60.1 94.2 60C94.3 59.9 94.5 59 94.2 58ZM89.9 58.9C90 58.5 90.1 58.1 90.2 57.9C90.5 57.5 90.9 57.3 91.4 57.3C91.9 57.3 92.3 57.5 92.6 57.9C92.8 58.2 92.9 58.5 92.9 58.9H89.9Z" fill="white"></path><path fill-rule="evenodd" clip-rule="evenodd" d="M59.6 58C59.5 57.6 59.2 57.2 59 57C58.7 56.7 58.4001 56.5 58.2001 56.4C57.8001 56.2 57.4 56.1 57 56.1C56.5 56.1 56 56.2 55.6 56.4C55.2 56.6 54.9 56.8 54.6 57.2C54.3 57.5 54.1 57.9 54 58.3C53.9 58.7 53.8 59.2 53.8 59.7C53.8 60.2 53.9 60.7 54 61.1C54.1 61.5 54.3 61.9 54.6 62.2C54.9 62.5 55.2001 62.8 55.7001 62.9C56.1001 63.1 56.7 63.2 57.3 63.2C58.5 63.2 59.2 62.9 59.5 62.8C59.5 62.8 59.6 62.7 59.5 62.6L59.2001 61.8C59.2001 61.7 59 61.7 59 61.7C58.7 61.8 58.3001 62 57.2001 62C56.5001 62 56.0001 61.8 55.7001 61.5C55.4001 61.2 55.2001 60.7 55.2001 60.1H59.5C59.5 60.1 59.6 60.1 59.6 60C59.7 59.9 59.8 59 59.6 58ZM55.3 58.9C55.4 58.5 55.5 58.1 55.6 57.9C55.9 57.5 56.3 57.3 56.8 57.3C57.4 57.3 57.7 57.5 58 57.9C58.2 58.2 58.3 58.5 58.3 58.9H55.3Z" fill="white"></path><path d="M47.7 58.7C47.5 58.7 47.3 58.7 47 58.7C46.6 58.7 46.3 58.7 45.9 58.8C45.6 58.9 45.3 59 45 59.2C44.7 59.4 44.5 59.6 44.4 59.9C44.2 60.2 44.2 60.5 44.2 60.9C44.2 61.3 44.3 61.6 44.4 61.9C44.5 62.2 44.7 62.4 45 62.6C45.2 62.8 45.5 62.9 45.9 63C46.2 63.1 46.6 63.1 47 63.1C47.4 63.1 47.8999 63.1 48.2999 63C48.6999 62.9 49.2 62.8 49.4 62.8C49.5 62.8 49.7 62.7 49.7 62.7C49.8 62.7 49.7999 62.6 49.7999 62.6V58.6C49.7999 57.7 49.5999 57.1 49.0999 56.7C48.5999 56.3 47.9999 56.1 47.0999 56.1C46.7999 56.1 46.3 56.1 45.9 56.2C45.9 56.2 44.9999 56.4 44.5999 56.7C44.5999 56.7 44.4999 56.8 44.5999 56.9L44.9 57.7C44.9 57.8 45 57.8 45 57.8C45 57.8 44.9999 57.8 45.0999 57.8C45.8999 57.3 47 57.4 47 57.4C47.5 57.4 47.7999 57.5 48.0999 57.7C48.2999 57.9 48.5 58.2 48.5 58.7V58.9C48 58.8 47.7 58.7 47.7 58.7ZM45.9 61.8C45.7 61.7 45.7 61.6 45.7 61.5C45.6 61.4 45.5999 61.2 45.5999 60.9C45.5999 60.5 45.7 60.2 46 60.1C46 60.1 46.3999 59.8 47.2999 59.8C47.8999 59.8 48.5 59.9 48.5 59.9V61.9C48.5 61.9 47.9999 62 47.2999 62.1C46.2999 62.1 45.9 61.8 45.9 61.8Z" fill="white"></path><path fill-rule="evenodd" clip-rule="evenodd" d="M82.5 56.5C82.5 56.4 82.5 56.3999 82.4 56.2999C82.3 56.2999 82 56.2 81.7 56.2C81.2 56.2 80.9 56.3 80.6 56.4C80.3 56.5 80 56.7 79.9 56.9V56.4C79.9 56.3 79.8 56.2999 79.8 56.2999H78.7C78.6 56.2999 78.6 56.4 78.6 56.4V62.7999C78.6 62.8999 78.7 62.9 78.7 62.9H79.8C79.9 62.9 79.9 62.7999 79.9 62.7999V59.5999C79.9 59.1999 79.9 58.7 80 58.5C80.1 58.2 80.2 58 80.4 57.9C80.6 57.7 80.7 57.5999 80.9 57.5999C81.1 57.4999 81.3 57.5 81.5 57.5C81.7 57.5 82 57.5999 82 57.5999C82.1 57.5999 82.1 57.6 82.2 57.5C82.3 57.2 82.5 56.6 82.5 56.5Z" fill="white"></path><path fill-rule="evenodd" clip-rule="evenodd" d="M71.8 53.5C71.7 53.5 71.5 53.4 71.4 53.4C71.2 53.4 71 53.4 70.8 53.4C70 53.4 69.4 53.6 69 54.1C68.6 54.5 68.3 55.2 68.1 56.1L68 56.4H67C67 56.4 66.9 56.4 66.9 56.5L66.7 57.4C66.7 57.5 66.7 57.5 66.8 57.5H67.8L66.8 62.9C66.7 63.3 66.6 63.7 66.5 64C66.4 64.3 66.3 64.5 66.2 64.6C66.1 64.7 66 64.8 65.8 64.9C65.7 65 65.5 65 65.3 65C65.2 65 65.1 65 65 65C64.9 65 64.8 65 64.8 64.9C64.8 64.9 64.7 64.9 64.6 65C64.6 65.1 64.3 65.8 64.3 65.9C64.3 66 64.3 66.1 64.4 66.1C64.5 66.1 64.6 66.2 64.8 66.2C65 66.3 65.2 66.3 65.4 66.3C65.8 66.3 66.2 66.2 66.5 66.1C66.8 66 67.1 65.8 67.3 65.5C67.6 65.2 67.7 64.9 67.9 64.5C68.1 64.1 68.2 63.6 68.3 63L69.3 57.5H70.7C70.7 57.5 70.8 57.5 70.8 57.4L71 56.5C71 56.4 71 56.4 70.9 56.4H69.5C69.5 56.4 69.6 55.9 69.7 55.4C69.8 55.2 69.9 55 70 54.9C70.1 54.8 70.2 54.7 70.4 54.7C70.5 54.7 70.7 54.6 70.9 54.6C71 54.6 71.2 54.6 71.3 54.6C71.4 54.6 71.5 54.6 71.5 54.7C71.6 54.7 71.7 54.7 71.7 54.6L72 53.7C72 53.6 71.9 53.5 71.8 53.5Z" fill="white"></path><path fill-rule="evenodd" clip-rule="evenodd" d="M52.5 62.9C52.5 63 52.4 63 52.4 63H51.2999C51.1999 63 51.2 62.9 51.2 62.9V53.7C51.2 53.6 51.2999 53.6 51.2999 53.6H52.4C52.5 53.6 52.5 53.7 52.5 53.7V62.9Z" fill="white"></path><path d="M40.3 98.2C40.3 100.3 39.6 102.5 38.2 104.5C36.8 106.6 35 108.6 32.9 110.5C30.8 112.4 27.7 114.9 23.7 118L21.4 119.8H37.9L37.8 120.6H20L20.1 119.8L22.7 117.8C26.8 114.6 29.9 112.1 32 110.2C34.2 108.3 35.9 106.3 37.3 104.3C38.7 102.3 39.4 100.2 39.4 98.2C39.4 96.6 38.9 95.2 37.8 94.2C36.7 93.2 35.2 92.7 33.1 92.7C31.3 92.7 29.8 93 28.4 93.6C27 94.2 25.6 95.1 24.2 96.3L23.7 95.7C25.3 94.4 26.8 93.4 28.2 92.8C29.6 92.2 31.3 91.9 33.2 91.9C35.5 91.9 37.2 92.5 38.4 93.7C39.7 94.9 40.3 96.4 40.3 98.2Z" fill="#9A8F87"></path><path d="M43.6 110.9C43.6 109.5 43.7 108.1 44 106.6C44.7 102.1 46.2 98.6 48.3 96C50.5 93.4 53.3 92.1 56.9 92.1C59.8 92.1 62 93 63.4 94.8C64.8 96.6 65.5 99.2 65.5 102.4C65.5 103.8 65.4 105.2 65.1 106.7C64.4 111.2 62.9 114.7 60.8 117.3C58.6 119.9 55.8 121.2 52.3 121.2C49.4 121.2 47.2 120.3 45.7 118.5C44.3 116.6 43.6 114.1 43.6 110.9ZM64.3 106.5C64.5 105 64.7 103.6 64.7 102.2C64.7 99.2 64.1 96.9 62.8 95.2C61.5 93.5 59.6 92.7 56.9 92.7C53.6 92.7 51 94 49 96.5C47 99 45.6 102.4 45 106.6C44.8 108.1 44.6 109.5 44.6 110.9C44.6 113.9 45.2 116.2 46.5 117.9C47.8 119.6 49.8 120.4 52.4 120.4C55.7 120.4 58.3 119.1 60.3 116.6C62.3 114.1 63.6 110.8 64.3 106.5Z" fill="#9A8F87"></path><path d="M82 119.8L81.9 120.6H67.2L67.3 119.8H74.9L79 93.5L70.1 98.2L69.8 97.5L79.4 92.5H80.1L75.8 119.8H82Z" fill="#9A8F87"></path><path d="M105.8 100.7C105.8 101.9 105.7 103.3 105.4 104.8C104.9 108.2 103.8 111.1 102.2 113.5C100.6 116 98.5 117.9 95.9 119.2C93.3 120.5 90.3 121.2 87 121.2V120.4C90.2 120.4 92.9 119.8 95.4 118.6C97.8 117.4 99.8 115.7 101.3 113.5C102.8 111.3 103.9 108.7 104.4 105.7C103.2 107.2 101.8 108.3 100.1 109.2C98.4 110.1 96.5 110.6 94.3 110.6C91.9 110.6 90 110 88.6 108.7C87.2 107.4 86.5 105.6 86.5 103.3C86.5 101.1 87 99.1 87.9 97.4C88.8 95.7 90.1 94.4 91.8 93.4C93.5 92.4 95.5 92 97.7 92C100.5 92 102.5 92.7 103.9 94.2C105.1 95.7 105.8 97.9 105.8 100.7ZM104.9 100.6C104.9 95.3 102.4 92.7 97.5 92.7C95.4 92.7 93.6 93.2 92 94.1C90.5 95 89.3 96.2 88.4 97.8C87.6 99.4 87.1 101.2 87.1 103.2C87.1 105.3 87.7 106.9 89 108C90.3 109.1 92 109.7 94.1 109.7C96.2 109.7 98.2 109.2 99.9 108.2C101.7 107.2 103.2 105.9 104.4 104.3C104.8 103.1 104.9 101.9 104.9 100.6Z" fill="#9A8F87"></path><path d="M37 25.2L38 23.9C38.4 24.2 38.9 24.4 39.3 24.6C39.8 24.7 40.3 24.8 40.8 24.8C41.5 24.8 42 24.7 42.4 24.4C42.8 24.1 43 23.7 43 23.2C43 22.8 42.9 22.5 42.7 22.2C42.5 22 42.2 21.8 41.9 21.6C41.6 21.4 41.1 21.3 40.4 21.1C39.4 20.8 38.6 20.4 38.1 19.9C37.6 19.4 37.3 18.7 37.3 17.8C37.3 17.1 37.5 16.6 37.8 16.1C38.2 15.6 38.6 15.3 39.2 15C39.8 14.8 40.5 14.6 41.2 14.6C42.6 14.6 43.8 15 44.8 15.7L43.9 17.1C43.5 16.8 43 16.6 42.6 16.5C42.2 16.4 41.7 16.3 41.2 16.3C40.6 16.3 40.1 16.4 39.8 16.6C39.4 16.8 39.3 17.2 39.3 17.6C39.3 18.1 39.5 18.4 39.8 18.7C40.2 18.9 40.8 19.2 41.6 19.4C42.7 19.7 43.5 20.1 44.1 20.6C44.7 21.1 45 21.9 45 22.9C45 23.7 44.8 24.3 44.4 24.8C44 25.3 43.5 25.7 42.8 26C42.1 26.3 41.4 26.4 40.6 26.4C39.8 26.4 39.1 26.3 38.5 26.1C38.2 25.9 37.6 25.6 37 25.2Z" fill="white"></path><path d="M50.4 24.6H51.7V26.2H47V24.6H48.3V16.4H47V14.9H51.7V16.4H50.4V24.6Z" fill="white"></path><path d="M56.5 24.5H61.4V26.2H54.4V14.9H56.5V24.5Z" fill="white"></path><path d="M66.7 26.2H64.7L60.4 14.9H62.6L65.7 23.8H65.8L68.8 14.9H71L66.7 26.2Z" fill="white"></path><path d="M79.3 16.6H74.3V19.6H78.6V21.2H74.3V24.5H79.6V26.2H72.2V14.9H79.3V16.6Z" fill="white"></path><path d="M87.8 26.2L85.6 22.4H83.7V26.2H81.6V14.9H85.6C86.9 14.9 87.9 15.2 88.7 15.9C89.5 16.6 89.9 17.5 89.9 18.7C89.9 20.3 89.1 21.4 87.6 22L90.3 26.2H87.8ZM85.4 20.8C86 20.8 86.6 20.6 87 20.3C87.4 20 87.6 19.4 87.6 18.7C87.6 18 87.4 17.5 87 17.1C86.6 16.8 86 16.6 85.4 16.6H83.7V20.8H85.4Z" fill="white"></path><path d="M42.5 106.2C42.5 106.9 42.3 107.5 42 108C41.7 108.5 41.2 108.8 40.7 109.1C40.2 109.4 39.6 109.4 39 109.4H37.4V112.4H35.7V103.1H39C40.1 103.1 40.9 103.4 41.5 103.9C42.2 104.4 42.5 105.2 42.5 106.2ZM37.2999 104.5V108H38.7999C39.2999 108 39.8 107.9 40.2 107.6C40.6 107.3 40.7999 106.9 40.7999 106.3C40.7999 105.7 40.5999 105.2 40.2999 105C39.8999 104.7 39.5 104.6 38.9 104.6H37.2999V104.5Z" fill="white"></path><path d="M48.3 110.4H44.5L43.8 112.4H42L45.6 103.1H47.4L51 112.4H49L48.3 110.4ZM45 109.1H47.9L46.5 104.9L45 109.1Z" fill="white"></path><path d="M57 112.4L55.2 109.2H53.6V112.4H51.9V103.1H55.2C56.2 103.1 57.1 103.4 57.7 103.9C58.3 104.4 58.7 105.2 58.7 106.2C58.7 107.5 58.1 108.4 56.8 108.9L59 112.4H57ZM55.1 107.9C55.6 107.9 56.1 107.8 56.4 107.5C56.7 107.2 56.9 106.8 56.9 106.2C56.9 105.6 56.7 105.2 56.4 104.9C56 104.6 55.6 104.5 55.1 104.5H53.7V108H55.1V107.9Z" fill="white"></path><path d="M66.4 104.5H63.6V112.4H61.9V104.5H59.1V103.1H66.4V104.5Z" fill="white"></path><path d="M67.5 103.1H69.5L74.1 110V103.1H75.7V112.4H73.7L69.1 105.4L69.2 112.4H67.6V103.1H67.5Z" fill="white"></path><path d="M83.6 104.5H79.4V107H83V108.3H79.4V111H83.8V112.4H77.7V103.1H83.6V104.5Z" fill="white"></path><path d="M90.4 112.4L88.6 109.2H87V112.4H85.3V103.1H88.6C89.6 103.1 90.5 103.4 91.1 103.9C91.7 104.4 92.1 105.2 92.1 106.2C92.1 107.5 91.5 108.4 90.2 108.9L92.4 112.4H90.4ZM88.4 107.9C88.9 107.9 89.4 107.8 89.7 107.5C90 107.2 90.2 106.8 90.2 106.2C90.2 105.6 90 105.2 89.7 104.9C89.3 104.6 88.9 104.5 88.4 104.5H87V108H88.4V107.9Z" fill="white"></path></svg>