<svg xmlns="http://www.w3.org/2000/svg" width="64" height="64" viewBox="0 0 64 64" fill="none"><path fill-rule="evenodd" clip-rule="evenodd" d="M40.5333 3.38667C40.3333 2.94667 39.8933 2.66667 39.4133 2.66667H37.8C37.3067 2.66667 36.8667 2.96 36.68 3.41333L35.3067 6.69333L33.52 7.44C33.52 7.44 31.32 6.6 30.1333 6.14667C30 6.09333 29.8533 6.06667 29.7067 6.06667C29.3867 6.06667 29.08 6.18667 28.84 6.42667L27.6933 7.57333C27.3467 7.92 27.24 8.44 27.4267 8.89333L28.7733 12.1867L28.0267 13.9867L24.72 15.4667C24.28 15.6667 24 16.1067 24 16.5867V18.2C24 18.6933 24.2933 19.1333 24.7333 19.3333L28.0133 20.7067L28.76 22.4933L27.4667 25.8667C27.2933 26.32 27.4 26.8267 27.7467 27.1733L28.8933 28.32C29.1333 28.56 29.44 28.68 29.76 28.68C29.92 28.68 30.08 28.6533 30.2267 28.5867L33.52 27.24L35.32 27.9867L36.8 31.28C37 31.72 37.44 32 37.92 32H39.5333C40.0267 32 40.4667 31.7067 40.6667 31.3067L42.04 28.0267L43.84 27.28L47.2133 28.5733C47.36 28.6267 47.5067 28.6533 47.6533 28.6533C47.9733 28.6533 48.28 28.52 48.52 28.2933L49.6667 27.1467C50.0133 26.8 50.12 26.2667 49.9333 25.8133L48.5867 22.52L49.32 20.72L52.6267 19.24C53.0667 19.04 53.3467 18.6 53.3467 18.12V16.5067C53.3467 16.0133 53.0533 15.56 52.6 15.3733L49.32 14L48.5733 12.2L49.8667 8.81333C50.04 8.36 49.9333 7.85333 49.5867 7.50667L48.44 6.36C48.2 6.12 47.8933 6 47.5733 6C47.4133 6 47.2533 6.02667 47.1067 6.09333L43.8133 7.44L42.0133 6.69333L40.5333 3.38667ZM46 17.4533C46 21.5067 42.72 24.7867 38.6667 24.7867C34.6133 24.7867 31.3333 21.5067 31.3333 17.4533C31.3333 13.4 34.6133 10.12 38.6667 10.12C42.72 10.12 46 13.4 46 17.4533ZM37.8 0H39.4133C40.9467 0 42.3467 0.906667 42.9333 2.26667L43.92 4.45333L46.0667 3.57333C46.5333 3.37333 47.0267 3.28 47.5333 3.28C48.5733 3.28 49.5467 3.68 50.28 4.41333L51.4267 5.56C52.52 6.64 52.8667 8.26667 52.32 9.69333L51.4667 11.9467L53.6 12.84C55.0533 13.44 55.9867 14.8533 55.9867 16.4267V18.04C55.9867 19.5733 55.0933 20.96 53.6933 21.5867L51.5067 22.5733L52.3867 24.72C52.9867 26.1733 52.64 27.84 51.5333 28.9467L50.3867 30.0933C49.6533 30.8267 48.68 31.2267 47.64 31.2267C47.16 31.2267 46.6933 31.1467 46.2533 30.9733L44.0133 30.12L43.12 32.2533C42.5067 33.7067 41.1067 34.64 39.5333 34.64H37.92C36.3867 34.64 35 33.7467 34.3733 32.3467L33.3867 30.16L31.2533 31.04C30.7733 31.24 30.28 31.3333 29.7733 31.3333C28.7333 31.3333 27.76 30.9333 27.0267 30.2L25.88 29.0533C24.8 27.9733 24.4533 26.3467 25 24.92L25.8533 22.68L23.72 21.7867C22.2667 21.1733 21.3333 19.7733 21.3333 18.2V16.5867C21.3333 15.0533 22.24 13.6533 23.64 13.0533L25.8267 12.08L24.9467 9.93333C24.36 8.48 24.6933 6.81333 25.8 5.70667L26.9467 4.56C27.68 3.81333 28.6533 3.41333 29.6933 3.41333C30.16 3.41333 30.6267 3.49333 31.0667 3.66667C31.6933 3.89333 32.6 4.24 33.32 4.52L34.2133 2.38667C34.8267 0.933333 36.2267 0 37.8 0ZM34 17.4533C34 20.0267 36.0933 22.12 38.6667 22.12C41.24 22.12 43.3333 20.0267 43.3333 17.4533C43.3333 14.88 41.24 12.7867 38.6667 12.7867C36.0933 12.7867 34 14.88 34 17.4533ZM58.9067 29.9199C60.0933 29.9199 61.2933 30.3866 62.2 31.2933C64.0267 33.1199 64.0267 36.0666 62.2133 37.8933L42.84 57.2666L42.8667 57.3066H19.0533L11.5333 63.9999L0 51.0533L12.72 39.7333C15.5467 36.9066 18.1467 36.0133 20.8533 36.0133C22.9313 36.0133 25.0788 36.5401 27.4504 37.1218C30.3743 37.8391 33.6388 38.6399 37.5333 38.6399H41.9333H42.2C43.8533 38.6399 45.2933 39.4933 46.12 40.7866L55.6133 31.2933C56.52 30.3733 57.72 29.9199 58.9067 29.9199ZM41.68 54.6399L60.32 36.0133C61.0933 35.2266 61.0933 33.9599 60.2933 33.1733C59.92 32.7999 59.4133 32.5866 58.88 32.5866C58.3467 32.5866 57.84 32.7999 57.4667 33.1733L47.9733 42.6666L46.7867 43.8533C46.52 46.1733 44.56 47.9733 42.1733 47.9733H28.1733C27.44 47.9733 26.84 47.3733 26.84 46.6399C26.84 45.9066 27.44 45.3066 28.1733 45.3066H42.1733C43.28 45.3066 44.1733 44.4133 44.1733 43.3066C44.1733 42.9333 44.0667 42.5866 43.88 42.2799L43.8533 42.2399C43.68 41.9599 43.44 41.7466 43.1733 41.5866C43.1467 41.5599 43.12 41.5466 43.0933 41.5333C42.9867 41.4799 42.88 41.4399 42.76 41.3999C42.74 41.3933 42.7233 41.3866 42.7067 41.3799C42.69 41.3733 42.6733 41.3666 42.6533 41.3599C42.6418 41.358 42.6304 41.3561 42.6191 41.3542C42.4722 41.3296 42.3352 41.3066 42.1867 41.3066H37.52C33.314 41.3066 29.8738 40.4616 26.8447 39.7176L26.8 39.7066L26.6819 39.6779C24.4785 39.1433 22.5692 38.6799 20.84 38.6799C19.2 38.6799 17.1733 39.0399 14.5867 41.6266L14.5333 41.6799L14.48 41.7333L3.76 51.2799L11.7467 60.2399L17.2667 55.3199L18.0267 54.6399H19.04H41.68Z" fill="#99BFFF"></path></svg>