<svg xmlns="http://www.w3.org/2000/svg" width="64" height="64" viewBox="0 0 64 64" fill="none"><path fill-rule="evenodd" clip-rule="evenodd" d="M61.3333 32C61.3333 23.2 54.1333 16 45.3333 16H18.6667C9.86667 16 2.66667 23.2 2.66667 32C2.66667 40.8 9.86667 48 18.6667 48H45.3333C54.1333 48 61.3333 40.8 61.3333 32ZM18.6667 13.3334H45.3333C55.6 13.3334 64 21.7334 64 32C64 42.2667 55.6 50.6667 45.3333 50.6667H18.6667C8.4 50.6667 0 42.2667 0 32C0 21.7334 8.4 13.3334 18.6667 13.3334ZM30.2222 32.0001C30.2222 38.382 25.0486 43.5556 18.6667 43.5556C12.2847 43.5556 7.11111 38.382 7.11111 32.0001C7.11111 25.6181 12.2847 20.4445 18.6667 20.4445C25.0486 20.4445 30.2222 25.6181 30.2222 32.0001Z" fill="#99C0FF"></path></svg>