<svg xmlns="http://www.w3.org/2000/svg" width="531" height="482" viewBox="0 0 531 482" fill="none"><g clip-path="url(#clip0)"><path d="M289.5 482C422.601 482 530.5 374.101 530.5 241C530.5 107.899 422.601 0 289.5 0C156.399 0 48.5 107.899 48.5 241C48.5 374.101 156.399 482 289.5 482Z" fill="#A9C9FF"></path><path d="M438.07 51.24C472.69 92.96 493.5 146.55 493.5 205C493.5 338.1 385.6 446 252.5 446C196.45 446 144.86 426.86 103.93 394.76C148.13 448.06 214.85 482 289.5 482C422.6 482 530.5 374.1 530.5 241C530.5 163.95 494.34 95.35 438.07 51.24Z" fill="#99C0FF"></path><path d="M323.495 281.015C226.825 283.115 130.165 283.115 33.495 281.015C16.965 280.635 2.675 266.845 1.905 250.295C-0.635 193.965 -0.635 137.625 1.905 81.295C2.675 64.745 16.965 50.955 33.495 50.575C130.165 48.475 226.825 48.475 323.495 50.575C340.025 50.955 354.315 64.745 355.085 81.295C357.625 137.625 357.625 193.965 355.085 250.295C354.315 266.845 340.025 280.635 323.495 281.015Z" fill="#1261E0"></path><path d="M202 136L250 184" stroke="white" stroke-width="10" stroke-miterlimit="10" stroke-linecap="round"></path><path d="M250 136L202 184" stroke="white" stroke-width="10" stroke-miterlimit="10" stroke-linecap="round"></path><path d="M68 136L116 184" stroke="white" stroke-width="10" stroke-miterlimit="10" stroke-linecap="round"></path><path d="M116 136L68 184" stroke="white" stroke-width="10" stroke-miterlimit="10" stroke-linecap="round"></path><path d="M188.081 340.203C163.537 336.316 141.324 347.752 138.472 365.757L227.364 379.836C230.216 361.831 212.625 344.091 188.081 340.203Z" fill="#1261E0"></path></g><defs><clipPath id="clip0"><path d="M0 0H530.5V482H0V0Z" fill="white"></path></clipPath></defs></svg>