<svg width="24" height="24" viewBox="0 0 24 24" fill="none" xmlns="http://www.w3.org/2000/svg">
<path d="M13.3599 11.9999L19.6499 5.70494C20.0399 5.31494 20.0399 4.67994 19.6499 4.28994C19.2599 3.89994 18.6249 3.89994 18.2349 4.28994L11.9449 10.5849L5.64988 4.29494C5.25988 3.90494 4.62488 3.90494 4.23488 4.29494C3.84488 4.68494 3.84488 5.31994 4.23488 5.70994L10.5299 11.9999L4.23988 18.2949C3.84988 18.6849 3.84988 19.3199 4.23988 19.7099C4.43488 19.8999 4.68988 19.9999 4.94488 19.9999C5.19988 19.9999 5.45488 19.8999 5.64988 19.7049L11.9449 13.4099L18.2399 19.7049C18.4349 19.8999 18.6899 19.9999 18.9449 19.9999C19.1999 19.9999 19.4549 19.8999 19.6499 19.7049C20.0399 19.3149 20.0399 18.6799 19.6499 18.2899L13.3599 11.9999Z" fill="white"/>
</svg>
